<svg xmlns="http://www.w3.org/2000/svg" viewBox="0 0 240 234"><defs><style>.cls-1{fill:#0e0e0e;}</style></defs><title>ai-noir</title><g id="Calque_2" data-name="Calque 2"><g id="Calque_1-2" data-name="Calque 1"><path class="cls-1" d="M105,103.9c-1-3.1-1.9-6.1-2.9-9.2s-1.9-6-2.7-8.9-1.5-5.4-2.2-7.8H97a122.78,122.78,0,0,1-3.4,12.9c-1.5,4.8-3,9.8-4.6,14.8-1.4,5.1-2.9,9.8-4.4,14H110c-.6-2.1-1.4-4.6-2.3-7.2S105.9,106.9,105,103.9Z"/><path class="cls-1" d="M197.5,0H42.5A42.46,42.46,0,0,0,0,42.5v149A42.46,42.46,0,0,0,42.5,234h155A42.46,42.46,0,0,0,240,191.5V42.5A42.46,42.46,0,0,0,197.5,0ZM146.7,164.9H125.8a1.51,1.51,0,0,1-1.6-1.1L116,140H78.8l-7.6,23.5a1.75,1.75,0,0,1-1.9,1.4H50.5c-1.1,0-1.4-.6-1.1-1.8L81.6,70.4c.3-1,.6-2.1,1-3.3a34.93,34.93,0,0,0,.6-6.5,1,1,0,0,1,.8-1.1h25.9c.8,0,1.2.3,1.3.8l36.5,103C148,164.4,147.7,164.9,146.7,164.9Zm34.5-1.1c0,1.1-.4,1.6-1.3,1.6H160.3a1.4,1.4,0,0,1-1.5-1.6v-77c0-1,.4-1.4,1.3-1.4h19.8c.9,0,1.3.5,1.3,1.4Zm-2.1-90.3A11.76,11.76,0,0,1,170,77a12.38,12.38,0,0,1-8.9-3.5,13,13,0,0,1-3.4-9.2,11.77,11.77,0,0,1,3.6-8.9,12.81,12.81,0,0,1,8.9-3.5c3.9,0,6.9,1.2,9.1,3.5a12.62,12.62,0,0,1,3.3,8.9A12.65,12.65,0,0,1,179.1,73.5Z"/></g></g></svg>