<svg xmlns="http://www.w3.org/2000/svg" viewBox="0 0 110.04 107.5"><defs><style>.cls-1{fill:#fff2c8;}</style></defs><title>excel-beige</title><g id="Calque_2" data-name="Calque 2"><g id="svg2"><path id="path58" class="cls-1" d="M80,21.25h17.5V30H80Z"/><path class="cls-1" d="M110,82.56q0-32.52,0-65.07c-.09-2.13.07-4.48-1.22-6.33-1.84-1.26-4.16-1.11-6.28-1.2C90,10,77.49,10,65,10V0H57.55C38.38,3.39,19.19,6.67,0,10V97.5c19.08,3.34,38.16,6.54,57.21,10H65V96.25c13,0,25.92,0,38.87,0,2.09-.09,5.21-.15,5.71-2.75C110.33,89.91,109.92,86.2,110,82.56ZM36.81,73.31c-2.12-5.21-4.71-10.25-6.23-15.7-1.7,5.08-4.13,9.86-6.08,14.84-2.74,0-5.47-.15-8.21-.26,3.21-6.29,6.31-12.63,9.62-18.88-2.81-6.43-5.9-12.75-8.8-19.15l8.25-.47c1.86,4.89,3.9,9.71,5.44,14.72C32.45,43.1,34.91,38.1,37,33c2.82-.2,5.66-.37,8.5-.51q-5,10.26-10.09,20.49c3.44,7,7,14,10.4,21C42.83,73.71,39.83,73.53,36.81,73.31ZM106.22,92.5H65V85H75V76.25H65v-5H75V62.5H65v-5H75V48.75H65v-5H75V35H65V30H75V21.25H65v-7.5h41.25Z"/><path id="path90" class="cls-1" d="M80,35h17.5v8.75H80Z"/><path id="path108" class="cls-1" d="M80,48.75h17.5V57.5H80Z"/><path id="path114" class="cls-1" d="M80,62.5h17.5v8.75H80Z"/><path id="path120" class="cls-1" d="M80,76.25h17.5V85H80Z"/></g></g></svg>