<svg xmlns="http://www.w3.org/2000/svg" viewBox="0 0 100.31 111.79"><defs><style>.cls-1{fill:#fff2c8;}</style></defs><title>Fichier 1</title><g id="Calque_2" data-name="Calque 2"><g id="Calque_1-2" data-name="Calque 1"><path class="cls-1" d="M.42,0h99.89c-1,11.68-1.82,23.15-2.84,34.61-1.84,20.57-3.84,41.13-5.58,61.72-.26,3.07-1,4.58-4.22,5.43-11.32,3-22.53,6.48-33.84,9.56a13.38,13.38,0,0,1-6.68.1c-11.63-3.14-23.19-6.56-34.78-9.84-2.17-.61-3.63-1.24-3.87-4.12C5.77,65.35,2.85,33.26,0,1.16,0,.87.21.56.42,0Zm24.7,65c.39,5.28.58,10,1.21,14.73.14,1.05,1.7,2.32,2.87,2.74,6.21,2.24,12.48,4.35,18.8,6.25a9.8,9.8,0,0,0,5.29,0C59.15,87,64.9,84.9,70.72,83.07c2.52-.79,3.59-2.14,3.71-5,.33-7.92,1.1-15.82,1.61-23.73.15-2.38,0-4.79,0-7.67H36.63V35.5H77c.37-4.34.7-8.15,1-12.16H22.8c.68,12.15,1.34,23.89,2,36.11H62.06c1.72,10.28-.1,13.82-9.65,15.69-3.66.72-8.24-.62-11.68-2.41-2.11-1.11-2.85-4.85-4.37-7.72Z"/></g></g></svg>