<svg xmlns="http://www.w3.org/2000/svg" xmlns:xlink="http://www.w3.org/1999/xlink" viewBox="0 0 691.2 363.6"><defs><style>.cls-1{fill:none;}.cls-2{clip-path:url(#clip-path);}.cls-3{fill:#0e0e0e;}.cls-4{fill:#fff;}</style><clipPath id="clip-path" transform="translate(-14.4 -20.7)"><rect class="cls-1" width="720" height="405"/></clipPath></defs><title>php-noir</title><g id="Calque_2" data-name="Calque 2"><g id="svg3430"><g id="g3438"><path class="cls-1" d="M14.4,202.5c0,100.4,154.73,181.8,345.6,181.8h0c190.87,0,345.6-81.4,345.6-181.8h0C705.6,102.1,550.87,20.7,360,20.7h0c-190.87,0-345.6,81.4-345.6,181.8" transform="translate(-14.4 -20.7)"/><g id="g3464"><g class="cls-2"><ellipse class="cls-3" cx="345.6" cy="181.8" rx="345.6" ry="181.8"/></g></g><g id="g3476"><g class="cls-2"><g id="g3478"><path class="cls-4" d="M291,135.26c-12-13.7-30.77-20.64-55.88-20.64H158.75a7.49,7.49,0,0,0-7.36,6.06L116,302.87a7.49,7.49,0,0,0,7.36,8.93H163a7.5,7.5,0,0,0,7.36-6.07l8.23-42.36h27.82c15.72,0,29-1.72,39.34-5.1A77.9,77.9,0,0,0,275,240.79a86.6,86.6,0,0,0,27.18-48.7C306.81,168.21,303,149.09,291,135.26Zm-44.53,51.19c-2.38,12.19-6.77,20.83-13.08,25.68s-16.94,7.49-31.17,7.49h-15L199,158.37h21c16.78,0,22.6,3.68,24.58,5.87C247.91,167.88,248.53,175.56,246.42,186.45Z" transform="translate(-14.4 -20.7)"/><path class="cls-4" d="M443.49,128.14c-9.91-9.1-26.51-13.52-50.75-13.52h-26l7.68-39.51a7.51,7.51,0,0,0-7.36-8.93H327.7a7.49,7.49,0,0,0-7.36,6.07L284.93,254.44a7.49,7.49,0,0,0,7.36,8.93h39.38A7.51,7.51,0,0,0,339,257.3L358.13,159h25.29c11.7,0,14.16,2.5,14.26,2.61.71.76,1.64,4.3.1,12.22l-15.66,80.62a7.49,7.49,0,0,0,7.36,8.93h40a7.5,7.5,0,0,0,7.36-6.07l16.48-84.78C457.18,152.61,453.87,137.69,443.49,128.14Z" transform="translate(-14.4 -20.7)"/><path class="cls-4" d="M600.72,135.26c-12-13.7-30.77-20.64-55.88-20.64H468.52a7.49,7.49,0,0,0-7.36,6.06L425.75,302.87a7.49,7.49,0,0,0,7.36,8.93H472.8a7.49,7.49,0,0,0,7.36-6.07l8.23-42.36h27.82c15.72,0,29-1.72,39.34-5.1a77.82,77.82,0,0,0,29.2-17.48,86.6,86.6,0,0,0,27.18-48.7C616.58,168.21,612.8,149.09,600.72,135.26Zm-44.53,51.19c-2.38,12.19-6.77,20.83-13.08,25.68s-16.94,7.49-31.17,7.49h-15l11.9-61.25h21c16.78,0,22.6,3.68,24.58,5.87C557.68,167.88,558.3,175.56,556.19,186.45Z" transform="translate(-14.4 -20.7)"/></g></g></g></g></g></g></svg>