<svg xmlns="http://www.w3.org/2000/svg" xmlns:xlink="http://www.w3.org/1999/xlink" viewBox="0 0 110.01 107.51"><defs><style>.cls-1{fill:none;}.cls-2{clip-path:url(#clip-path);}.cls-3{fill:#fff2c8;}</style><clipPath id="clip-path" transform="translate(-20.81 -9.51)"><rect class="cls-1" width="151.04" height="126.23"/></clipPath></defs><title>pp-beige_1</title><g id="Calque_2" data-name="Calque 2"><g id="svg2"><g id="g12"><g class="cls-2"><g id="g14"><g id="g24"><path id="path26" class="cls-3" d="M97.36,34.39V49.71h14.9a15.11,15.11,0,0,0-14.9-15.32" transform="translate(-20.81 -9.51)"/></g><path class="cls-3" d="M47.43,52v10.6c2.51.2,5,.68,6.48-2,1.16-2,1.06-5.71-.28-7.26C51.9,51.36,49.67,51.64,47.43,52Z" transform="translate(-20.81 -9.51)"/><path class="cls-3" d="M127.21,21.19H83.72V9.51L20.81,20.73V105.8L83.72,117V102.87h43.49a3.67,3.67,0,0,0,3.61-3.71V24.9A3.67,3.67,0,0,0,127.21,21.19ZM61.65,60.81A10.27,10.27,0,0,1,53.9,69a43.06,43.06,0,0,1-6.65.62v12H41V45.45c4.86,0,9.7-.14,14.52.09a6.21,6.21,0,0,1,3.67,2C62.72,51.36,62.72,56.09,61.65,60.81Zm65.56,38.35H83.72V89.82h33.91V85.49H83.72V78.17h33.91V73.84H83.72v-12a14.67,14.67,0,0,0,11.34,5.39A15.11,15.11,0,0,0,110,51.87H95.06V36.56a14.7,14.7,0,0,0-11.34,5.38v-17h43.49Z" transform="translate(-20.81 -9.51)"/></g></g></g></g></g></svg>