<svg xmlns="http://www.w3.org/2000/svg" viewBox="0 0 110.01 107.51"><defs><style>.cls-1{fill:#0e0e0e;}</style></defs><title>pp-noir_1</title><g id="Calque_2" data-name="Calque 2"><g id="svg2"><g id="g12"><g id="g14"><g id="g24"><path id="path26" class="cls-1" d="M501.56,250.88v15.31h14.9a15.11,15.11,0,0,0-14.9-15.31" transform="translate(-425 -226)"/></g><path class="cls-1" d="M451.62,268.5v10.6c2.51.2,5,.68,6.49-2,1.15-2,1.05-5.71-.28-7.26C456.1,267.85,453.87,268.13,451.62,268.5Z" transform="translate(-425 -226)"/><path class="cls-1" d="M531.41,237.68h-43.5V226L425,237.22v85.07l62.91,11.22V319.36h43.5a3.67,3.67,0,0,0,3.61-3.72V241.39A3.66,3.66,0,0,0,531.41,237.68ZM465.84,277.3a10.24,10.24,0,0,1-7.74,8.19,43.14,43.14,0,0,1-6.65.63v12h-6.31V261.93c4.87,0,9.7-.14,14.52.1a6.16,6.16,0,0,1,3.67,2C466.91,267.85,466.91,272.58,465.84,277.3Zm65.56,38.34H487.91v-9.33h33.91V302H487.91v-7.32h33.91v-4.33H487.91v-12a14.71,14.71,0,0,0,11.34,5.38,15.11,15.11,0,0,0,14.9-15.31h-14.9V253.05a14.71,14.71,0,0,0-11.34,5.38v-17h43.5Z" transform="translate(-425 -226)"/></g></g></g></g></svg>