<svg xmlns="http://www.w3.org/2000/svg" viewBox="0 0 240 234"><defs><style>.cls-1{fill:#fff2c8;}</style></defs><title>premiere-beige</title><g id="Calque_2" data-name="Calque 2"><g id="Calque_1-2" data-name="Calque 1"><path class="cls-1" d="M101.5,81.1a29.34,29.34,0,0,0-11.8-2c-2.6,0-4.9,0-6.8.1a22.9,22.9,0,0,0-4.1.1v33.6c1.4.1,2.7.2,3.9.2H88a37.35,37.35,0,0,0,11.5-1.8,17.2,17.2,0,0,0,8.2-5.3c2.1-2.5,3.1-5.9,3.1-10.3a16.46,16.46,0,0,0-2.3-8.9A14.5,14.5,0,0,0,101.5,81.1Z"/><path class="cls-1" d="M197.5,0H42.5A42.46,42.46,0,0,0,0,42.5v149A42.46,42.46,0,0,0,42.5,234h155A42.46,42.46,0,0,0,240,191.5V42.5A42.46,42.46,0,0,0,197.5,0ZM126.6,116.3a34.26,34.26,0,0,1-16.1,12.2c-6.8,2.5-14.3,3.4-22.5,3.4-2.4,0-4,0-5-.1s-2.4-.1-4.3-.1v32.1a1.24,1.24,0,0,1-1.1,1.4H58.2c-.8,0-1.2-.4-1.2-1.3V61c0-.7.3-1.1,1-1.1,1.7,0,3.3,0,5.6-.1s4.9-.1,7.6-.2,5.6-.1,8.7-.2,6.1-.1,9.1-.1c8.2,0,15,1,20.6,3.1A35.71,35.71,0,0,1,123,70.6,31.84,31.84,0,0,1,130.3,82a38.28,38.28,0,0,1,2.3,13Q132.6,107.9,126.6,116.3ZM195.2,85v19.5c0,.8-.5,1.1-1.6,1.1a43.48,43.48,0,0,0-10.8,1,41.15,41.15,0,0,0-8.4,2.7,15.55,15.55,0,0,0-5.1,3.7v51c0,1-.4,1.4-1.3,1.4H148.3a1.38,1.38,0,0,1-1.6-1.2V108.4c0-2.4,0-4.9-.1-7.5s-.1-5.2-.2-7.8c0-2.3-.2-4.5-.4-6.8a.92.92,0,0,1,.7-1.1c0-.1.2-.1.3,0h17.5a2.25,2.25,0,0,1,2.1,1.6,10.15,10.15,0,0,1,.6,2.5c.2,1,.4,2.1.5,3.1s.2,2.3.2,3.6a37.22,37.22,0,0,1,10.7-8.6,31,31,0,0,1,15.2-3.9,1.24,1.24,0,0,1,1.4,1.1Z"/></g></g></svg>