<svg xmlns="http://www.w3.org/2000/svg" viewBox="0 0 110.03 107.5"><defs><style>.cls-1{fill:#fff2c8;}</style></defs><title>word-beige</title><g id="Calque_2" data-name="Calque 2"><g id="svg2"><path class="cls-1" d="M109.91,14.85a4.3,4.3,0,0,0-4.83-4.77c-13.36-.22-26.72,0-40.1-.08V0H57.51C38.34,3.41,19.17,6.67,0,10Q0,53.74,0,97.5c19.06,3.34,38.13,6.53,57.16,10H65v-10c12.51,0,25,0,37.53,0,2.12-.1,4.48.06,6.31-1.24,1.46-2.24,1.09-5,1.21-7.56C109.86,64.11,110.12,39.47,109.91,14.85ZM41.71,70.74c-2.09,1.09-5.22,0-7.69.12-1.66-8.27-3.6-16.5-5.09-24.81-1.46,8.08-3.36,16.08-5,24.1q-3.6-.18-7.22-.44c-2.08-11-4.51-21.92-6.45-32.95,2.14-.1,4.29-.18,6.42-.26,1.29,8,2.75,15.89,3.88,23.86,1.76-8.17,3.56-16.35,5.31-24.52,2.38-.14,4.75-.24,7.13-.37,1.66,8.44,3.36,16.87,5.16,25.27,1.41-8.68,3-17.33,4.49-26,2.5-.09,5-.23,7.48-.37C47.27,46.49,44.79,58.7,41.71,70.74Zm64.52,23H65v-10h32.5v-5H65V72.5h32.5v-5H65V61.25h32.5v-5H65V50h32.5V45H65V38.75h32.5v-5H65V27.5h32.5v-5H65V13.75h41.25Z"/></g></g></svg>